<?xml version="1.0" standalone="no"?>
<!DOCTYPE svg PUBLIC "-//W3C//DTD SVG 20010904//EN"
 "http://www.w3.org/TR/2001/REC-SVG-20010904/DTD/svg10.dtd">
<svg version="1.0" xmlns="http://www.w3.org/2000/svg"
 width="32.000000pt" height="32.000000pt" viewBox="0 0 32.000000 32.000000"
 preserveAspectRatio="xMidYMid meet">

<g transform="translate(0.000000,32.000000) scale(0.100000,-0.100000)"
fill="#000000" stroke="none">
<path d="M95 306 c-101 -44 -125 -178 -46 -257 65 -65 157 -65 222 0 124 124
-15 327 -176 257z m152 -24 c43 -30 66 -85 60 -138 -9 -84 -80 -141 -163 -131
-192 21 -166 310 27 294 26 -2 60 -13 76 -25z"/>
<path d="M189 238 c21 -24 41 -29 41 -11 0 4 -3 3 -7 0 -3 -4 -18 3 -32 15
l-26 23 24 -27z"/>
<path d="M159 208 c21 -24 41 -29 41 -11 0 4 -3 3 -7 0 -3 -4 -18 3 -32 15
l-26 23 24 -27z"/>
<path d="M199 162 l-44 -47 48 45 c69 64 59 26 -11 -43 l-58 -57 -32 33 c-38
40 -30 59 9 21 17 -16 29 -22 33 -15 4 6 2 11 -5 11 -7 0 -22 9 -34 20 -18 17
-24 18 -33 7 -9 -10 -3 -22 26 -50 l38 -37 67 68 c55 56 66 71 54 80 -11 9
-23 2 -58 -36z"/>
<path d="M110 196 c0 -2 4 -16 10 -31 9 -24 10 -25 28 -8 11 10 16 21 13 24
-8 9 -51 22 -51 15z m40 -21 c0 -12 -19 -12 -23 0 -4 9 -1 12 9 8 7 -3 14 -7
14 -8z"/>
</g>
</svg>
