<?xml version="1.0" standalone="no"?>
<!DOCTYPE svg PUBLIC "-//W3C//DTD SVG 20010904//EN"
 "http://www.w3.org/TR/2001/REC-SVG-20010904/DTD/svg10.dtd">
<svg version="1.0" xmlns="http://www.w3.org/2000/svg"
 width="32.000000pt" height="32.000000pt" viewBox="0 0 32.000000 32.000000"
 preserveAspectRatio="xMidYMid meet">

<g transform="translate(0.000000,32.000000) scale(0.100000,-0.100000)"
fill="#000000" stroke="none">
<path d="M237 313 c-14 -13 -6 -25 8 -13 11 9 19 10 27 2 13 -13 2 -32 -18
-32 -8 0 -14 -4 -14 -10 0 -5 -20 -10 -43 -10 -37 0 -46 4 -55 25 -14 31 -57
43 -91 24 -50 -28 -32 -120 23 -118 19 0 19 1 -4 10 -13 6 -28 15 -32 22 -35
54 42 116 85 69 24 -26 21 -32 -13 -32 -16 0 -30 -2 -30 -5 0 -3 25 -36 55
-72 50 -60 55 -72 55 -114 0 -44 -2 -48 -27 -52 -16 -2 -3 -4 27 -4 30 0 45 2
33 4 -20 4 -23 10 -23 56 0 48 4 58 50 114 54 67 57 73 36 73 -8 0 -13 -7 -12
-16 0 -9 -9 -20 -22 -25 -21 -8 -23 -7 -16 14 3 12 18 32 32 43 23 19 25 24
13 38 -14 17 -33 21 -44 9z m-16 -91 c-7 -14 -19 -18 -43 -15 l-33 3 30 -11
c17 -6 38 -11 48 -11 13 1 15 -3 8 -17 -6 -10 -17 -24 -26 -31 -15 -12 -21 -9
-51 26 -64 73 -64 74 11 74 61 0 65 -1 56 -18z"/>
</g>
</svg>
