<?xml version="1.0" standalone="no"?>
<!DOCTYPE svg PUBLIC "-//W3C//DTD SVG 20010904//EN"
 "http://www.w3.org/TR/2001/REC-SVG-20010904/DTD/svg10.dtd">
<svg version="1.0" xmlns="http://www.w3.org/2000/svg"
 width="32.000000pt" height="32.000000pt" viewBox="0 0 32.000000 32.000000"
 preserveAspectRatio="xMidYMid meet">

<g transform="translate(0.000000,32.000000) scale(0.100000,-0.100000)"
fill="#000000" stroke="none">
<path d="M11 253 c0 -25 4 -43 10 -43 7 0 8 -21 4 -64 -4 -35 -4 -73 0 -85 8
-27 32 -27 40 0 7 20 7 20 27 2 14 -12 36 -18 68 -18 40 0 54 5 79 29 l31 30
0 -32 c0 -25 4 -32 20 -32 19 0 20 7 20 126 0 124 0 125 -22 122 -12 -2 -27
-13 -33 -25 -10 -20 -13 -21 -26 -7 -24 23 -83 29 -118 11 -28 -14 -30 -14
-34 7 -3 17 -5 15 -6 -6 -1 -36 -18 -36 -24 0 l-4 27 -2 -27 c0 -16 -5 -28
-10 -28 -5 0 -12 12 -14 28 -3 19 -4 14 -6 -15z m289 -38 c0 -58 -2 -65 -20
-65 -18 0 -20 7 -20 58 0 61 4 72 27 72 9 0 13 -17 13 -65z m-82 35 c27 -17
32 -25 32 -59 0 -22 4 -43 10 -46 16 -10 -17 -63 -50 -80 -39 -20 -68 -19
-106 4 -28 17 -32 27 -39 77 -5 40 -3 60 4 62 6 2 11 10 11 18 0 17 47 43 80
44 14 0 40 -9 58 -20z m-153 -30 c-3 -5 -12 -10 -20 -10 -8 0 -17 5 -20 10 -4
6 5 10 20 10 15 0 24 -4 20 -10z m-18 -57 c-3 -10 -5 -4 -5 12 0 17 2 24 5 18
2 -7 2 -21 0 -30z m0 -90 c-2 -16 -4 -5 -4 22 0 28 2 40 4 28 2 -13 2 -35 0
-50z m253 22 c0 -25 -4 -45 -10 -45 -5 0 -10 20 -10 45 0 25 5 45 10 45 6 0
10 -20 10 -45z"/>
<path d="M105 215 c-50 -49 -15 -135 55 -135 70 0 105 86 55 135 -15 16 -36
25 -55 25 -19 0 -40 -9 -55 -25z m102 -7 c29 -27 29 -57 2 -92 -25 -32 -64
-34 -96 -4 -30 28 -29 63 2 93 30 31 62 32 92 3z"/>
</g>
</svg>
