<?xml version="1.0" encoding="utf-8"?>
<!-- Generator: Adobe Illustrator 21.0.0, SVG Export Plug-In . SVG Version: 6.00 Build 0)  -->
<svg version="1.1" id="Layer_1" xmlns="http://www.w3.org/2000/svg" xmlns:xlink="http://www.w3.org/1999/xlink" x="0px" y="0px"
	 width="2000px" height="2000px" viewBox="0 0 2000 2000" style="enable-background:new 0 0 2000 2000;" xml:space="preserve">
<style type="text/css">
	.st0{fill:#FFF5EE;}
	.st1{fill:#FFD2D6;}
	.st2{fill:#FFC0C9;}
	.st3{fill:#2A3054;}
	.st4{fill:#EFEFEF;}
	.st5{fill:#ED4A62;}
	.st6{fill:url(#SVGID_1_);}
	.st7{fill:#7F4746;}
	.st8{fill:url(#SVGID_2_);}
	.st9{fill:url(#SVGID_3_);}
	.st10{fill:url(#SVGID_4_);}
	.st11{fill:url(#SVGID_5_);}
	.st12{fill:#FCDEE0;}
	.st13{fill:url(#SVGID_6_);}
	.st14{fill:url(#SVGID_7_);}
	.st15{fill:#2E3666;}
	.st16{fill:url(#SVGID_8_);}
	.st17{fill:url(#SVGID_9_);}
	.st18{fill:url(#SVGID_10_);}
	.st19{fill:url(#SVGID_11_);}
	.st20{fill:url(#SVGID_12_);}
	.st21{fill:url(#SVGID_13_);}
	.st22{fill:#FF5B6D;}
	.st23{fill:#383F7C;}
	.st24{fill:url(#SVGID_14_);}
	.st25{fill:url(#SVGID_15_);}
	.st26{fill:#FFFFFF;}
	.st27{fill:url(#SVGID_16_);}
	.st28{fill:url(#SVGID_17_);}
	.st29{fill:url(#SVGID_18_);}
	.st30{fill:url(#SVGID_19_);}
	.st31{fill:url(#SVGID_20_);}
	.st32{fill:url(#SVGID_21_);}
	.st33{fill:url(#SVGID_22_);}
	.st34{fill:url(#SVGID_23_);}
	.st35{fill:url(#SVGID_24_);}
	.st36{fill:url(#SVGID_25_);}
	.st37{fill:url(#SVGID_26_);}
	.st38{fill:url(#SVGID_27_);}
	.st39{fill:url(#SVGID_28_);}
	.st40{fill:url(#SVGID_29_);}
	.st41{fill:url(#SVGID_30_);}
	.st42{fill:url(#SVGID_31_);}
	.st43{fill:url(#SVGID_32_);}
	.st44{fill:url(#SVGID_33_);}
	.st45{fill:url(#SVGID_34_);}
	.st46{fill:url(#SVGID_35_);}
	.st47{fill:url(#SVGID_36_);}
	.st48{fill:url(#SVGID_37_);}
	.st49{fill:url(#SVGID_38_);}
</style>
<g>
	<rect class="st0" width="2001" height="2001"/>
	<g>
		<path class="st1" d="M1911.3,580.8c0,0,0,0.1,0,0.1c9.9,46.7,7.4,96.4,3.7,144c-3.5,44.5-24.1,87.2-37.4,129.8
			c-26,83.6-63.5,165.1-75.8,252.1c-6,42.3-4,84.4,6.1,126c11.4,46.8,28.4,92.4,33.3,140.6c0.6,5.5,0.9,10.9,1,16.4
			c9.8-45.4,4.5-95.6-2.1-141.9c-6.2-43.9-12.8-87.5-10.6-131.9c2.3-44.9,11.6-89,23.1-132.4c23.2-87.5,55.6-172.9,65.8-263.3
			C1923.8,673.2,1921.1,626.1,1911.3,580.8 M174,441.1c-12.9,12.4-24.7,25.9-35.2,40.4c-22,30.5-37.3,66-42.6,103.3
			c-6.5,45.7,1.5,91.6,15.2,135.3c14,44.8,33.2,87.8,48.3,132.2c15.8,46.8,26,95.4,30.8,144.6c4.8,49.3,4.6,99.1,0.4,148.5
			c-4,47.5-12.3,95.4-6.6,143.1c4.8,40.2,20.1,77.2,47.5,107.3c9.9,10.8,20.9,20.4,32.8,28.8c-45.9-64.5-48.3-149.3-33.9-224.6
			c18-94.4,61.8-184.9,61.6-282.2c-0.2-102.3-45.3-198-78.8-293.2C192.6,565.4,175.7,503.4,174,441.1 M1851.1,435.8L1851.1,435.8
			c18.7,36.1,37.2,65.7,50.9,109.5C1890.2,506.6,1873,469.7,1851.1,435.8 M1493.3,241.9c-15.7,0-31.3,0.9-46.9,2.7
			c-88.4,10.3-169.8,47.3-250.6,82.2c-40.7,17.6-81.8,34.7-124.3,47.7c-26.5,8.1-53.4,14.1-80.6,18c59,28.7,121,51.5,186.6,60.2
			c16.8,2.2,33.7,3.3,50.5,3.3c32.2,0,64.2-3.9,95.6-11.4c49.7-11.8,96.9-30.8,142.9-52.1c59.9-27.8,135.5-75.7,207-75.7
			c26.2,0,51.9,6.5,76.1,22.8c26.5,17.9,56.3,39.3,78.6,63.8c-35.8-45.6-81-84.1-133.9-111.7
			C1632.5,259.6,1562.9,241.9,1493.3,241.9"/>
		<path class="st1" d="M1842.3,1389.7c-7.2,33.3-22.5,64-51.3,88.6c-62.6,53.6-154,60-232.7,63c-13.3,0.5-26.6,0.8-39.8,0.8
			c-169.7,0-338.9-40.9-490-118.1c-1.9,3.1-5,5.4-9.2,5.4c-0.9,0-1.8-0.1-2.7-0.3c-48.5-11.2-97.9-17.3-147.7-18.1
			c-3.8-0.1-7.7-0.1-11.5-0.1c-46.9,0-93.6,4.7-139.6,13.8c-48.8,9.7-96.7,23.4-145.2,34.2c-43.7,9.8-88.3,16.9-132.7,16.9
			c-39.8,0-79.4-5.8-117.7-20.7c-20.3-7.9-39.9-18-57.7-30.6c5.6,7.9,11.8,15.4,18.7,22.6c43.4,45.2,102.8,59.1,163.4,59.1
			c31.5,0,63.4-3.8,93.5-8.8c52.4-8.8,104.4-20.3,156.5-30.7c54.9-11,109.8-21.9,164.7-32.9c0.2,0,0.4-0.1,0.6-0.1
			c20.5-4.1,41.3-6.1,62.1-6.1c24.3,0,48.6,2.8,72.3,8.4c54.7,12.9,108.4,30.2,161.3,48c90,30.1,179.5,63,273,81.6
			c46.2,9.2,95,15.7,143.5,15.7c43.5,0,86.7-5.2,127.5-18.2c39.1-12.5,77.6-32.7,103.7-64.1
			C1831.5,1467.3,1843,1429.2,1842.3,1389.7 M1902,545.3c3.6,11.7,6.7,23.5,9.3,35.5C1908.5,567.8,1905.4,556.1,1902,545.3
			 M1828.1,403.4c8.2,10.4,15.9,21.2,23.1,32.3C1845.3,424.4,1837.3,413.6,1828.1,403.4 M446.3,161.1c-27.5,0-54.9,3-81.9,9.6
			c-43.6,10.6-84.8,31.7-116.1,63c-30.5,30.6-51.2,69.3-62.7,110c-9.1,32.3-12.4,64.9-11.6,97.4c42.1-40.6,95.7-69.5,151.9-84.3
			c42.2-11.1,85.2-15.5,128.5-15.5c56,0,112.2,7.3,167.1,16.4c98.1,16.3,196,39.9,295.9,39.9c3.8,0,7.6,0,11.5-0.1
			c20.8-0.4,41.5-2,61.9-4.9c-30.8-15-60.8-31.5-90-48.4c-85.8-49.6-168.9-103.9-261.6-141.4C578.5,178.2,512.4,161.1,446.3,161.1"
			/>
		<path class="st2" d="M1673.4,316.8c-71.5,0-147.1,48-207,75.7c-45.9,21.3-93.2,40.3-142.9,52.1c-31.4,7.4-63.5,11.4-95.6,11.4
			c-16.8,0-33.7-1.1-50.5-3.3c-65.5-8.6-127.6-31.5-186.6-60.2c-20.4,2.9-41.1,4.6-61.9,4.9c-3.8,0.1-7.7,0.1-11.5,0.1
			c-99.9,0-197.8-23.5-295.9-39.9c-54.9-9.1-111.2-16.4-167.1-16.4c-43.2,0-86.3,4.3-128.5,15.5c-56.3,14.8-109.8,43.8-151.9,84.3
			c1.6,62.3,18.6,124.4,39.3,183.5c33.4,95.2,78.6,190.9,78.8,293.2c0.2,97.3-43.7,187.7-61.6,282.2c-14.3,75.3-12,160,33.9,224.6
			c17.8,12.6,37.4,22.7,57.7,30.6c38.3,14.9,77.9,20.7,117.7,20.7c44.4,0,89-7.2,132.7-16.9c48.5-10.8,96.4-24.5,145.2-34.2
			c46-9.2,92.7-13.8,139.6-13.8c3.8,0,7.7,0,11.5,0.1c49.8,0.8,99.2,6.9,147.7,18.1c1,0.2,1.9,0.3,2.7,0.3c4.1,0,7.3-2.3,9.2-5.4
			c151.1,77.2,320.3,118.1,490,118.1c13.3,0,26.6-0.3,39.8-0.8c78.7-3,170.1-9.4,232.7-63c28.8-24.6,44.1-55.3,51.3-88.6
			c-0.1-5.4-0.4-10.9-1-16.4c-4.9-48.1-21.9-93.7-33.3-140.6c-10.1-41.6-12.1-83.7-6.1-126c12.3-87,49.8-168.5,75.8-252.1
			c13.2-42.6,33.9-85.4,37.4-129.8c3.7-47.6,6.2-97.2-3.7-144c0,0,0-0.1,0-0.1c-2.6-12-5.7-23.8-9.3-35.5
			c-13.7-43.8-32.2-73.4-50.9-109.5l0,0c-7.2-11.1-14.9-21.9-23.1-32.3c-22.3-24.6-52.1-45.9-78.6-63.8
			C1725.4,323.2,1699.7,316.8,1673.4,316.8"/>
	</g>
	<path class="st3" d="M1720.2,1705c-11.7-18.8-32.6-25.6-53.6-27.4c-24.3-2-49.2-0.4-73.6-0.3c-24.7,0-49.4,0-74.2,0
		c-47.4-0.1-94.8-0.5-142.2-0.9c-95.3-0.8-190.5-1.8-285.8-1.7c-25,0-49.9,0.1-74.9,0.2c-104.7-1.3-209.4-2.6-314.1-4
		c-104.7-1.3-209.4-2.6-314.1-4c-20.7-0.3-43.1-2.2-62.6,6.1c-18,7.7-29.1,23.8-30.4,43.3c-2.9,42.8,35.6,68.6,72.6,77.6
		c47,11.5,97.1,11.1,145.1,9.8c50.6-1.3,101.3-4.7,151.9-1.7c49.8,3,97.7,15.5,146.2,26.6c49.6,11.3,99.2,17.5,150.2,16.6
		c50.9-1,101.6-7.2,152.1-12.8c51.7-5.7,103.4-11.4,155-17.2c103.8-11.5,207.6-23,311.5-34.5c25.8-2.9,51.7-5.7,77.5-8.6
		c19.1-2.1,40.6-3,56.2-15.6C1729.1,1743.7,1730.7,1721.9,1720.2,1705z"/>
	<g>
		<path class="st4" d="M785.1,739.9v66.4c0,16.2,9.9,30.1,24,36c5.2,2.2,8.6,7.4,8.6,13.1v35.3c0,8.7-6,16.3-14.4,18.3
			c-1.1,0.3-2,1-2.3,2.1c-0.7,2.2,0.9,4.1,3,4.1h13.8h6.4h6.4h13.8c1.9,0,3.4-1.7,3.1-3.7c-0.2-1.3-1.2-2.3-2.5-2.6
			c-8.4-2-14.4-9.6-14.4-18.2v-35.3c0-5.7,3.3-10.9,8.6-13.1c14.1-5.9,24-19.8,24-36v-66.4H785.1z"/>
		<path class="st5" d="M790.9,760.3v45c0,18.4,14.9,33.3,33.3,33.3l0,0c18.4,0,33.3-14.9,33.3-33.3v-45H790.9z"/>
	</g>
	<g>
		<path class="st4" d="M1149.4,767.8v55.5c0,13.6,8.3,25.2,20.1,30.1c4.4,1.8,7.2,6.2,7.2,10.9v29.5c0,7.3-5,13.6-12.1,15.3
			c-0.9,0.2-1.7,0.9-1.9,1.7c-0.5,1.8,0.8,3.4,2.5,3.4h11.5h5.3h5.3h11.5c1.6,0,2.9-1.4,2.6-3.1c-0.2-1.1-1-1.9-2.1-2.1
			c-7-1.7-12-8-12-15.2v-29.5c0-4.7,2.8-9.1,7.2-10.9c11.8-4.9,20.1-16.5,20.1-30.1v-55.5H1149.4z"/>
		<path class="st5" d="M1154.2,784.9v37.6c0,15.3,12.4,27.8,27.8,27.8l0,0c15.3,0,27.8-12.4,27.8-27.8v-37.6H1154.2z"/>
	</g>
	<g>
		<linearGradient id="SVGID_1_" gradientUnits="userSpaceOnUse" x1="1017.651" y1="1417.2324" x2="1019.9456" y2="1176.6499">
			<stop  offset="0" style="stop-color:#7F4746"/>
			<stop  offset="1" style="stop-color:#683A3A"/>
		</linearGradient>
		<rect x="983.1" y="1135" class="st6" width="69.2" height="563.9"/>
		<g>
			<g>
				<path class="st7" d="M1664.5,1350.7h-333c-6.3,0-11.4-5.1-11.4-11.4v-18c0-1.2,1-2.1,2.1-2.1h351.5c1.2,0,2.1,1,2.1,2.1v18
					C1675.9,1345.6,1670.8,1350.7,1664.5,1350.7z"/>
				<linearGradient id="SVGID_2_" gradientUnits="userSpaceOnUse" x1="1616.2771" y1="1523.8468" x2="1614.4751" y2="1428.8007">
					<stop  offset="0" style="stop-color:#7F4746"/>
					<stop  offset="1" style="stop-color:#683A3A"/>
				</linearGradient>
				<polygon class="st8" points="1663.8,1698.8 1637.6,1698.8 1568.8,1350.7 1595,1350.7 				"/>
				<linearGradient id="SVGID_3_" gradientUnits="userSpaceOnUse" x1="1379.687" y1="1524.7477" x2="1379.687" y2="1429.6844">
					<stop  offset="0" style="stop-color:#7F4746"/>
					<stop  offset="1" style="stop-color:#683A3A"/>
				</linearGradient>
				<polygon class="st9" points="1332.2,1698.8 1358.4,1698.8 1427.2,1350.7 1401,1350.7 				"/>
				<linearGradient id="SVGID_4_" gradientUnits="userSpaceOnUse" x1="1503.2587" y1="1056.7338" x2="1619.3727" y2="1235.4">
					<stop  offset="0" style="stop-color:#FEB783"/>
					<stop  offset="1" style="stop-color:#EA9154"/>
				</linearGradient>
				<path class="st10" d="M1743,924.1h-80.6c-24.3,0-45.2,17.2-49.9,41.1l-52.1,268.7l-240.3,42.4l165.7,14.2l172.6-5.8l54.8-124.2
					L1743,924.1z"/>
				<linearGradient id="SVGID_5_" gradientUnits="userSpaceOnUse" x1="1547.3003" y1="1191.1777" x2="1553.0614" y2="1305.652">
					<stop  offset="0" style="stop-color:#FEB783"/>
					<stop  offset="1" style="stop-color:#EA9154"/>
				</linearGradient>
				<path class="st11" d="M1718.5,944.7l-56.8,319.8c-1.2,6.9-7.2,11.9-14.2,11.9h-327.4v25.7c0,13.7,11.1,24.9,24.9,24.9h305.6l0,0
					c29.2,0,54.3-21,59.4-49.8l57.5-323.8c2.7-15.2-9-29.2-24.5-29.2h0C1730.9,924.1,1720.6,932.8,1718.5,944.7z"/>
			</g>
			<g>
				<path class="st12" d="M1442,1152.9c0,0-190.7,8.7-228,46.7c-33.5,34-24.6,332.4-37.3,361.6s-35,88.6-42.6,95.6
					c-7.6,7-46.7,12.2-46.7,23.9s0.6,19.8,32.7,19.2s58.3,2.3,58.3-6.4s21.6-74.7,54.2-98c21.3-15.2,15.4-45.4,1.7-51.9
					c-23.3-11.1,40.2-223.4,42.6-252.5s57.7-74.7,60.1-75.8C1339.4,1214.1,1442,1152.9,1442,1152.9z"/>
				<linearGradient id="SVGID_6_" gradientUnits="userSpaceOnUse" x1="1087.426" y1="1620.2792" x2="1246.6854" y2="1620.2792">
					<stop  offset="0" style="stop-color:#383F7C"/>
					<stop  offset="1" style="stop-color:#2E3666"/>
				</linearGradient>
				<path class="st13" d="M1234.4,1543.6c-1.1-0.5-2-1.6-2.8-3l0,0c0,0-58.9,117.1-78.3,118.5c-7.3,0.5-14-0.3-20.3-1.5
					c-9.5,6.6-45.6,11.9-45.6,23.1c0,11.7,0.6,19.8,32.7,19.2s58.3,2.3,58.3-6.4s21.6-74.7,54.2-98
					C1254,1580.3,1248.1,1550.1,1234.4,1543.6z"/>
				<linearGradient id="SVGID_7_" gradientUnits="userSpaceOnUse" x1="1220.756" y1="1638.0526" x2="1220.756" y2="1612.0311">
					<stop  offset="0" style="stop-color:#383F7C"/>
					<stop  offset="1" style="stop-color:#2E3666"/>
				</linearGradient>
				<polygon class="st14" points="1245.4,1577.4 1214.4,1699.9 1196.1,1699.9 1213.2,1592.2 				"/>
				<path class="st15" d="M1389.6,837.6c-7.1-12-0.6-23.2,5-34.5c0.2-1.5,0.4-3,0.6-4.5c1.4-11.5,2.9-23,4.3-34.5
					c0.5-4.2,3.2-7.9,7.9-7.9c1.3,0,2.7,0.4,3.9,1.1c14.7-3.6,30.7,3.3,37.8,16.9c8.4,16,7.2,36.9,4.6,54.2
					c-2.4,15.9-9.2,34.7-28.1,35.6c-18.1,0.8-29.9-15.6-32.2-31.9c-1.1-7.6-0.5-15.1,0.4-22.7c-4.3,8.6-7.7,18.1-2.4,27.1
					C1392.1,837.7,1390.3,838.7,1389.6,837.6z"/>
				<path class="st15" d="M1389.2,726c1.2,0.6,0.1,2.4-1.1,1.8c-11.7-5.9-12.5-18-9.8-29.4c0.6-5.6,2.5-11,5.5-15.9
					c7.2-11.8,19.5-19.1,31.1-25.8c5.9-3.4,11.2,5.7,5.3,9.1c-15,8.7-41.4,25.8-28.7,46.6c3.5,5.8-5.6,11.1-9.1,5.3
					c-1.5-2.4-2.5-5-3.2-7.6C1379.5,716.7,1382.2,722.5,1389.2,726z"/>
				<linearGradient id="SVGID_8_" gradientUnits="userSpaceOnUse" x1="1293.2162" y1="901.8459" x2="1331.2605" y2="936.3471">
					<stop  offset="0" style="stop-color:#FCDEE0"/>
					<stop  offset="1" style="stop-color:#EFB4B4"/>
				</linearGradient>
				<path class="st16" d="M1388.1,844.5c0,0-10.3,0.7-23.4,22c-13.1,21.3-56.3,126.8-63.6,128.9c-7.3,2-66.5-75.2-68.2-88.6
					s-10.8-29.7-17.5-46.1s-38.8-23.3-39.9-17.8c-1.2,5.5-4.1,39.1,2.9,45.5c7,6.4,23.6,14.6,28.9,21.6s42.6,119.6,86.9,129.2
					s88.6-99.1,88.6-99.1L1388.1,844.5z"/>
				<linearGradient id="SVGID_9_" gradientUnits="userSpaceOnUse" x1="1266.9263" y1="942.1017" x2="1388.1405" y2="942.1017">
					<stop  offset="0" style="stop-color:#FF5B6D"/>
					<stop  offset="0.9667" style="stop-color:#ED4A62"/>
					<stop  offset="1" style="stop-color:#EFB4B4"/>
				</linearGradient>
				<path class="st17" d="M1364.7,866.5c-13.1,21.3-56.3,126.8-63.6,128.9c-1.8,0.5-6.7-3.8-13.1-10.7c-3.4,10-10.1,25.5-21.2,36.1
					c8.6,9.4,17.8,16.2,27.2,18.3c44.3,9.6,88.6-99.1,88.6-99.1l5.3-95.6C1388.1,844.5,1377.9,845.2,1364.7,866.5z"/>
				<linearGradient id="SVGID_10_" gradientUnits="userSpaceOnUse" x1="1389.8613" y1="1023.0535" x2="1389.8613" y2="777.2633">
					<stop  offset="0" style="stop-color:#FCDEE0"/>
					<stop  offset="1" style="stop-color:#EFB4B4"/>
				</linearGradient>
				<path class="st18" d="M1425.8,805.1c0,0-0.1,33.4-5.9,33.4c-5.8,0-35,1.2-41.4,14.6s-35,66.5-28,86.9s16.9,29.2,29.7,48.4
					c12.8,19.2,78.3,145,60.5,159c-17.9,14-164.1,28-184.3,70.8c-12.8,27.2,4.3,309.1,4.3,337.7c0,34.2-28.8,91.4-46.7,103.8
					c-17.9,12.4-44.1,17.3-42.6,30.5c1.6,13.2,11.3,12.8,35,12.1c23.7-0.8,50.5,2.7,54.4-3.5c3.9-6.2,29-74.3,48.4-83.2
					c19.4-8.9,17.9-35,0.8-52.9c-17.1-17.9,22.6-157.1,18.3-229.6c-2.5-41.9-5.8-63,9.9-70.6c15.7-7.6,231,39.7,261.3-33.2
					s-24.2-130.1-53.7-175c-25.2-38.5-21.2-99.7-8.9-153.4c12.2-53.7,0-65.3-16.3-65.9c-16.3-0.6-57-9.9-55.8-46.7L1425.8,805.1z"/>
				<linearGradient id="SVGID_11_" gradientUnits="userSpaceOnUse" x1="1349.3583" y1="968.838" x2="1578.9384" y2="968.838">
					<stop  offset="0" style="stop-color:#FF5B6D"/>
					<stop  offset="0.9667" style="stop-color:#ED4A62"/>
					<stop  offset="1" style="stop-color:#EFB4B4"/>
				</linearGradient>
				<path class="st19" d="M1545.8,1054.3c-25.2-38.5-21.2-99.7-8.9-153.4c12.2-53.7,0-65.3-16.3-65.9c-7.6-0.3-20.5-2.5-31.9-8.4
					c-0.1-4.5-1.1-9-2.7-12.3c-2.2-4.3-7.8-6.5-10.9-1.8c-0.7,1-0.7,2.1-1.3,3.1c-0.2,0.6-0.3,1.3-0.5,1.9c-1.7,1-3.5,2-5.2,2.9
					c-0.3,0-0.7-1.2-1.1-1.2c-2.1-0.5-3.1-0.9-4.7,1c-0.7,0.8-0.7,1.5-1.2,2.5c-0.4,0.7-2,4.5-3.5,4.2c-0.5-0.1-1.2-1.6-1.6-2
					c-1.7-1.6-3.2-2.2-5.3-1.1c-1.3,0.7-1.8,2-2.9,2.9c-1,0.7-3.2,1.7-4.6,0.3c-0.4-0.4-0.5-1.9-0.8-2.4c-0.9-1.7-2.1-3-4.3-2.7
					c-1.3,0.2-2.5,1.2-3.3,2.2c-2.1,2.4-1,4-4.8,4.3c-3.7,0.3-3.4-1.5-6.2-3.3c-0.9-0.6-1.7-1-2.9-1.1c-7.9-0.3-5.5,8.4-3.9,14.6
					c-9.3,0.4-32.9,2.6-38.6,14.5c-6.4,13.4-35,66.5-28,86.9s16.9,29.2,29.7,48.4c10.3,15.5,54.5,99.6,62.3,139.4
					c31.8-1.5,96.8-6.8,136.4-25.3C1567.8,1085,1555.5,1069,1545.8,1054.3z"/>
				<linearGradient id="SVGID_12_" gradientUnits="userSpaceOnUse" x1="1329.2006" y1="1195.3292" x2="1425.0305" y2="1282.2345">
					<stop  offset="0" style="stop-color:#6F84EF"/>
					<stop  offset="1" style="stop-color:#526DE2"/>
				</linearGradient>
				<path class="st20" d="M1556.9,1070.4c-39.9,29.4-94.5,32.6-121.8,32c0,0-28.3,54.1-91.1,59.2c-62.8,5.2-118.2,14.8-134.9,45
					c-16.6,30.2-48.5,165.5-48.5,165.5s7.8,17.1,31.9,11.7c24.1-5.4,31.9-4.1,42,1.1s19.8,5,30.1,0c10.3-5,15.7-3.8,33.2,3.8
					c17.5,7.6,42.4,0,42.4,0s-11.9-57.4-13.7-105.6c1-10.3,7.7-14.3,16.8-14.1c17.5,0.4,225.7,33.2,256-39.7
					C1626.3,1164.8,1586.8,1112.7,1556.9,1070.4z"/>
				<linearGradient id="SVGID_13_" gradientUnits="userSpaceOnUse" x1="1329.2692" y1="999.2977" x2="1391.0554" y2="975.6423">
					<stop  offset="0" style="stop-color:#FCDEE0"/>
					<stop  offset="1" style="stop-color:#EFB4B4"/>
				</linearGradient>
				<path class="st21" d="M1527.4,837.5c-13.2-3.5-26.8,4.1-30.6,17.2c-12.5,43.2-39.7,134.4-48.7,144.2
					c-11.9,12.8-72.5,24.5-116.8,44.3c-44.3,19.8-53.1,33.2-82.8,26.8c-29.7-6.4-82.4,18.7-77,18.7s109.1,0,122.5,0
					s156.9-35,177.9-58.9c21-23.9,62-113.9,62-113.9s8.5-38.4,8.1-48.8c-0.4-10.7-1.4-26.1-14-29.4
					C1527.7,837.6,1527.6,837.5,1527.4,837.5z"/>
				<path class="st22" d="M1541.9,867.1c-0.4-10.7-1.4-26.1-14-29.4c-0.2,0-0.3-0.1-0.5-0.1c-13.2-3.5-26.8,4.1-30.6,17.2
					c-12.5,43.2-39.7,134.4-48.7,144.2c-4.4,4.7-15.4,9.3-29.7,14.2c2.5,10.8,7.7,27.6,16.9,36.7c17.5-6.9,31.1-13.8,36.6-20
					c21-23.9,62-113.9,62-113.9S1542.3,877.4,1541.9,867.1z"/>
				<path class="st23" d="M1323.3,1596.7c1.6-10.9-3.4-23.7-13.3-34.1c-0.7-0.8-1.3-1.8-1.9-2.9c0,0-39.3,102.5-62.3,103.6
					c-14.3,0.7-27.1-0.7-34.7-1.8c-17.7,11.1-41.2,16.1-39.7,28.6c1.6,13.2,11.3,12.8,35,12.1c23.7-0.8,50.5,2.7,54.4-3.5
					c2.8-4.5,16.8-41.7,31.8-65.1l-4.3,68.9h15.2l19.9-105.7V1596.7z"/>
				<linearGradient id="SVGID_14_" gradientUnits="userSpaceOnUse" x1="1386.4701" y1="732.3137" x2="1498.0503" y2="732.3137">
					<stop  offset="0" style="stop-color:#FCDEE0"/>
					<stop  offset="1" style="stop-color:#EFB4B4"/>
				</linearGradient>
				<path class="st24" d="M1415.7,806.1c-15.4,0.1-20.7-19.4-23.7-44.1l-2.9-29.5c-0.6-6.4-1.2-12.8-2-18.9
					c-5.4-41.6,31.3-55,31.3-55c89.7-2.1,83.2,60.1,75.8,96.8C1486.8,792.2,1436,806,1415.7,806.1z"/>
				<linearGradient id="SVGID_15_" gradientUnits="userSpaceOnUse" x1="1432.9418" y1="744.0687" x2="1524.4285" y2="798.1541">
					<stop  offset="0" style="stop-color:#383F7C"/>
					<stop  offset="1" style="stop-color:#2E3666"/>
				</linearGradient>
				<path class="st25" d="M1468.1,835c1.1,3.6,3.9,18.5-4.7,16.8c-0.2,0-0.4-0.1-0.6-0.1c-2-0.3-4.1-0.1-5.6,0.9
					c-2.7,1.6-3.9,4.1-3.8,6.8c-0.2,2,0.3,4.1,1.7,5.5c7.2,12.5,25.7,13.3,38.1,11.1c14.5-2.6,29.1-6.8,37.5-19.6
					c5.5-8.3,7.2-16.9,6.8-25.5c3.6-8.1,3.5-17.7,1-26.4c-4.2-14.8-13.9-27.3-19.2-41.7c-0.9-9.6-0.5-19.4-0.8-29
					c-0.4-14.5-2.7-28.6-9.3-41.8c-12-23.5-36-39.6-62.8-41c-13.7-0.7-28.1,2.6-39.7,9.8c-5.8,3.6-11,8.7-14.1,14.6
					c-0.4-0.1-0.8,0-1,0.5c-5.7,12.9-5.4,29.4,7.6,38.1c6.8,4.6,15.3,5.5,23.7,6.7c1,0.4,1.9,0.8,2.9,1.2c5.2,2,11,4.2,15.7,7.5
					c5,7.4,6.3,16.9,6.6,25.9c0.3,11.2,0.3,22.2,2.4,33.3c2,10.9,5.5,21.4,10.1,31.5c2.1,4.6,4.5,9,7.2,13.3
					C1467.7,833.9,1467.9,834.4,1468.1,835z M1415.7,717.7c-0.4-0.1-0.7-0.1-1.1-0.2c-8.6-1.6-16.7-4.9-21.3-12.6
					c-2.7-4.6-3.6-9.6-3.4-14.7c0.3,1.4,0.6,2.8,1.2,4.2c0.1,0.3,0.3,0.6,0.4,0.9C1396.1,706.4,1405.4,712.8,1415.7,717.7z
					 M1462.8,820.1c-5.1-10.8-8.7-22.2-10.8-33.9c-2.4-13.7-0.7-27.5-2.8-41.2c-0.6-3.8-1.6-7.6-3.1-11.1c4.7,5.9,6.2,13.8,7.2,21
					c2.7,18.3,2.4,36.9,6.4,55.1C1460.6,813.5,1461.6,816.8,1462.8,820.1z M1520.4,770.9c4.2,8.9,9.4,17.3,13.2,26.4
					c3.8,9,5.9,19.4,3.4,28.6c-2.2-16.4-10.8-32.9-15.1-48.3C1521.3,775.4,1520.8,773.1,1520.4,770.9z"/>
				<path class="st26" d="M1333.3,1348.1c-10,1.2-26.9-8.3-33.1-10.4c-8-2.8-16.6-4.4-25.1-3.5c-8.6,0.9-14,6-21.6,8.5
					c-6,2-10.4-3.6-15.8-6.5c-7.5-4.2-16-5.9-24.5-5.5c-10.6,0.5-33.3,11.5-43.3,4.4c-2.8,11.3-5.2,20.9-6.8,27.5
					c10.6,3.2,22.9,2.2,33.9-0.4c12.1-2.8,20.9-5.5,31.9,1.6c8.8,5.7,18.2,10.2,28.9,7.4c11.4-3,17.1-11.4,29.7-8.1
					c11.6,3,21.9,9.6,33.7,11.8c5.4,1,11.1,1.1,16.6,0.2C1336.5,1368,1334.9,1358.7,1333.3,1348.1z"/>
			</g>
		</g>
		<g>
			<g>
				<path class="st7" d="M335.5,1347.1h333c6.3,0,11.4-5.1,11.4-11.4v-18c0-1.2-1-2.1-2.1-2.1H326.2c-1.2,0-2.1,1-2.1,2.1v18
					C324.1,1342,329.2,1347.1,335.5,1347.1z"/>
				
					<linearGradient id="SVGID_16_" gradientUnits="userSpaceOnUse" x1="-2256.3896" y1="1520.3276" x2="-2258.1917" y2="1425.2815" gradientTransform="matrix(-1 0 0 1 -1872.6666 0)">
					<stop  offset="0" style="stop-color:#7F4746"/>
					<stop  offset="1" style="stop-color:#683A3A"/>
				</linearGradient>
				<polygon class="st27" points="336.2,1695.3 362.4,1695.3 431.2,1347.1 405,1347.1 				"/>
				
					<linearGradient id="SVGID_17_" gradientUnits="userSpaceOnUse" x1="-2492.9797" y1="1521.2285" x2="-2492.9797" y2="1426.1653" gradientTransform="matrix(-1 0 0 1 -1872.6666 0)">
					<stop  offset="0" style="stop-color:#7F4746"/>
					<stop  offset="1" style="stop-color:#683A3A"/>
				</linearGradient>
				<polygon class="st28" points="667.8,1695.3 641.6,1695.3 572.8,1347.1 599,1347.1 				"/>
				
					<linearGradient id="SVGID_18_" gradientUnits="userSpaceOnUse" x1="-2369.408" y1="1053.2146" x2="-2253.2939" y2="1231.881" gradientTransform="matrix(-1 0 0 1 -1872.6666 0)">
					<stop  offset="0" style="stop-color:#FEB783"/>
					<stop  offset="1" style="stop-color:#EA9154"/>
				</linearGradient>
				<path class="st29" d="M257,920.6h80.6c24.3,0,45.2,17.2,49.9,41.1l52.1,268.7l240.3,42.4l-165.7,14.2l-172.6-5.8L286.8,1157
					L257,920.6z"/>
				
					<linearGradient id="SVGID_19_" gradientUnits="userSpaceOnUse" x1="-2325.3665" y1="1187.6586" x2="-2319.6052" y2="1302.1328" gradientTransform="matrix(-1 0 0 1 -1872.6666 0)">
					<stop  offset="0" style="stop-color:#FEB783"/>
					<stop  offset="1" style="stop-color:#EA9154"/>
				</linearGradient>
				<path class="st30" d="M281.5,941.2l56.8,319.8c1.2,6.9,7.2,11.9,14.2,11.9h327.4v25.7c0,13.7-11.1,24.9-24.9,24.9H349.4h0
					c-29.2,0-54.3-21-59.4-49.8l-57.5-323.8c-2.7-15.2,9-29.2,24.5-29.2h0C269.1,920.6,279.4,929.3,281.5,941.2z"/>
			</g>
			<g>
				<linearGradient id="SVGID_20_" gradientUnits="userSpaceOnUse" x1="603.1943" y1="975.2235" x2="1033.6331" y2="975.2235">
					<stop  offset="0" style="stop-color:#FCDEE0"/>
					<stop  offset="1" style="stop-color:#EFB4B4"/>
				</linearGradient>
				<path class="st31" d="M669.8,854.3c0,0,31.6,7,34.6,97.6s-15.9,101.2,11.3,107.3c22,4.9,112.9,6.8,167.5,10.2
					c20.2,1.2,40.4-0.4,60-4.9c14.4-3.3,29.8-6,35.4-3.7c11.3,4.5,74,31.7,49.1,32.5c-24.9,0.8-378.9,6.4-385.3,0
					c-6.4-6.4-15.3-119.6-15.3-119.6l-24-77.6L669.8,854.3z"/>
				<linearGradient id="SVGID_21_" gradientUnits="userSpaceOnUse" x1="757.2216" y1="973.7903" x2="669.1702" y2="973.7903">
					<stop  offset="0" style="stop-color:#FFFFFF"/>
					<stop  offset="1" style="stop-color:#F1F2F2"/>
				</linearGradient>
				<path class="st32" d="M803.2,1065.5c-38.7-1.7-74.7-3.5-87.5-6.4c-27.2-6-8.3-16.6-11.3-107.3c-3-90.7-22.2-100.5-22.2-100.5
					l-79,44.6l24,77.6c0,0,8.9,113.2,15.3,119.6c3,3,81.4,3.4,166.9,2.8C804.2,1086.4,802.9,1075.6,803.2,1065.5z"/>
				<linearGradient id="SVGID_22_" gradientUnits="userSpaceOnUse" x1="865.5869" y1="1450.8066" x2="744.5812" y2="1438.1537">
					<stop  offset="0" style="stop-color:#6F84EF"/>
					<stop  offset="1" style="stop-color:#526DE2"/>
				</linearGradient>
				<path class="st33" d="M925.3,1664c-22.7-10.2-75.9-21.5-96.3-55.5c-2-3.3-3.5-9.5-4.7-17.9c7.7-1.8,15.2-5,21.6-10.1L830,1225.6
					c-0.1-3.3-0.2-6.2-0.4-8.6l0-0.3l0,0c-0.2-2.1-0.4-3.7-0.6-5c-6.8-31.7-234.4-43.3-234.4-43.3l134.7,118.1c0,0,2.9,12.6,7,32.7
					l-3.6,7l32,259.9l0,0c-0.4,1.1-0.9,2.1-1.4,3c-26.2,47.6-12.5,106-12.5,106s173.4,0.6,185.9,0
					C949.1,1694.6,948,1674.2,925.3,1664z"/>
				<linearGradient id="SVGID_23_" gradientUnits="userSpaceOnUse" x1="903.7542" y1="1637.9631" x2="798.6419" y2="1643.3147">
					<stop  offset="0" style="stop-color:#383F7C"/>
					<stop  offset="1" style="stop-color:#2E3666"/>
				</linearGradient>
				<path class="st34" d="M925.3,1664c-22.7-10.2-75.9-21.5-96.3-55.5c-2-3.3-3.5-9.5-4.7-17.9c-28,6.6-59.7-4.4-59.7-4.4
					c-0.4,1.1-0.9,2.1-1.4,3c-26.2,47.6-12.5,106-12.5,106s173.4,0.6,185.9,0C949.1,1694.6,948,1674.2,925.3,1664z"/>
				<linearGradient id="SVGID_24_" gradientUnits="userSpaceOnUse" x1="372.3139" y1="1229.616" x2="857.3989" y2="1229.616">
					<stop  offset="0" style="stop-color:#FCDEE0"/>
					<stop  offset="1" style="stop-color:#EFB4B4"/>
				</linearGradient>
				<path class="st35" d="M547.7,759.3c0,0-3.2,46.8-16.2,52.4c-13,5.7-70.8,2.8-82.2,20.4c-11.3,17.6-52.9,135.4-62,206.3
					s-19.1,166-13.4,183c5.7,17,17,70.3,113.3,68c96.3-2.3,168.5,1.1,170.2,7.9c1.7,6.8,40.2,293.5,28.3,318.5
					c-9.8,20.5-10.6,42.7-11.4,65.4c-0.3,9.7,7.4,17.8,17.1,17.9c41.6,0.6,159.8,2.2,163.8-2.7c5.1-6.2,2.3-27.2-28.9-31.7
					s-80-35.3-85.1-64.7c-5.1-29.5,23.9-355.3,1.1-375.1c-38-33.1-146.3-40.6-147.9-56.3c-5.3-50,114.9-288.8,87.7-317.1
					c-21.2-22.1-57.8-12.5-58.9-33.4s-10.2-49.3-10.2-49.3L547.7,759.3z"/>
				<g>
					
						<linearGradient id="SVGID_25_" gradientUnits="userSpaceOnUse" x1="-2823.6267" y1="948.6521" x2="-2758.0313" y2="888.8375" gradientTransform="matrix(-0.9932 0.1161 0.1161 0.9932 -2278.3303 133.6511)">
						<stop  offset="0" style="stop-color:#F9CACA"/>
						<stop  offset="1" style="stop-color:#EFB4B4"/>
					</linearGradient>
					<path class="st36" d="M637.7,806.9c-11.6,3.5-97.7-2.9-111.7-69.7c-14-66.7,6.8-98.9,62.7-100.2c0,0,59-2.6,69.3,63.1
						c0.6,3.8,1.1,7.5,1.5,11.2l0.5,44.1C656.6,786.7,645.5,804.5,637.7,806.9z"/>
					
						<linearGradient id="SVGID_26_" gradientUnits="userSpaceOnUse" x1="-2795.2314" y1="1028.0497" x2="-2790.0503" y2="944.5827" gradientTransform="matrix(-0.9932 0.1161 0.1161 0.9932 -2278.3303 133.6511)">
						<stop  offset="0" style="stop-color:#383F7C"/>
						<stop  offset="1" style="stop-color:#2E3666"/>
					</linearGradient>
					<path class="st37" d="M555.8,773.7l-2.6,4.1c-2.9-1.5,4.4,3.6,1.5,2.1c-1.3-0.7-2.5-0.5-3.4,0.1c30.9,26.7,78,29.4,86.4,26.8
						c7.8-2.4,18.9-20.2,22.3-51.6l-0.1-5c-6.3-2.2-12.9-3.9-19.6-4.1c-9-0.3-17.6,2.2-25.7,5.7c-16.8,7.3-37.5,21.5-56.3,12.3
						c-4.4-2.2-5.8,4.5-1.4,6.7C558.5,771.7,554,773.2,555.8,773.7z M611.1,767.3c12.6-1.8,26.6-14.1,38.3-2.7
						c0.3,0.3,0.5,0.6,0.7,0.9c0.7,0.9,1,2.2,0.5,3.6c-3,7.5-9.1,13.9-17.5,14.5c-9,0.7-17-4.4-23.9-9.6
						C606.5,772,608,767.8,611.1,767.3z"/>
					
						<linearGradient id="SVGID_27_" gradientUnits="userSpaceOnUse" x1="-2777.8286" y1="1027.8361" x2="-2789.3376" y2="910.549" gradientTransform="matrix(-0.9932 0.1161 0.1161 0.9932 -2278.3303 133.6511)">
						<stop  offset="0" style="stop-color:#383F7C"/>
						<stop  offset="1" style="stop-color:#2E3666"/>
					</linearGradient>
					<path class="st38" d="M559.8,765.6c-0.2,3.7-0.6,7.3-1,10.9c0,0,0,0,0,0.1c-0.4,3.6-4.5,5.6-7.6,3.6c-3.2-2-7.2-4.5-9.1-6.1
						c-3.7-3.1-16.8-23.6-18.1-25.9c-0.1-0.1-0.1-0.3-0.2-0.4c-4.5-10.5-8.7-21-10.8-32.2c-2.4-12.5-3.4-27.1-0.6-39.7
						c2.9-13.1,11-22.8,21.9-30.3c5.7-3.9,11.9-7.1,17.9-10.5c6.7-3.7,13.6-7.4,21.1-9.2c12.5-3,27-0.4,39.2,2.8
						c13.1,3.5,26,8.4,39.6,9.8c3.4,0.4,6.9,0.6,10.2-0.3c2.6-0.7,5-2.2,7.7-2.9c4.6-1.1,8.7-0.1,11.2,4.2c2.7,4.7,2.3,9.3,0.1,13.5
						c-0.3,0.6-0.5,1.2-0.6,1.9c-1.4,14.9-8,30-24.2,33.4c-10.5,2.2-19.9-4.4-30.4-3.5c-8.4,0.8-16,4.1-24.1,3.2
						c-2-0.2-3.9,0.8-4.9,2.5c-0.4,0.7-0.8,1.4-1.3,2.1c-7.3,11-21.2,12.4-29.9,21.4c-1.3,1.3-2.3,2.7-3.1,4.3
						c-0.9,1.7-2.7,2.8-4.6,2.7c-1.9-0.1-3.8,0.2-5.8,1c-5.1,2.1-8,7.2-8,12.6c-0.1,10.7,6.7,23.8,14.7,30.7
						C559.6,765.4,559.7,765.5,559.8,765.6z"/>
				</g>
				<path class="st23" d="M687.8,1578.7c0.7,19,0.2,32.5-2,37.1c-9.8,20.5-10.6,42.7-11.4,65.4c-0.3,9.7,7.4,17.8,17.1,17.9
					c41.6,0.6,159.8,2.2,163.8-2.7c5.1-6.2,2.3-27.2-28.9-31.7s-80-35.3-85.1-64.7c-0.6-3.7-0.7-11.9-0.5-23.5
					C725.6,1577,706.2,1577.8,687.8,1578.7z"/>
				<linearGradient id="SVGID_28_" gradientUnits="userSpaceOnUse" x1="697.1096" y1="1268.5914" x2="544.8647" y2="1388.6111">
					<stop  offset="0" style="stop-color:#6F84EF"/>
					<stop  offset="1" style="stop-color:#526DE2"/>
				</linearGradient>
				<path class="st39" d="M751.3,1305.4c0-12.8-0.2-24.6-0.6-35l0-0.1l0,0c-1.1-24.6-3.5-41.5-8.2-45.5
					c-38-33.1-146.3-40.6-147.9-56.3c-0.6-5.3,0.3-12.8,2.3-22l-220.8-6.7c-3.6,39.5-5.2,72.3-2.1,81.6c5.7,17,17,70.3,113.3,68
					c96.3-2.3,168.5,1.1,170.2,7.9l13.2,302.4c0,0,44.9,28,85.9,3.8L751.3,1305.4z"/>
				<linearGradient id="SVGID_29_" gradientUnits="userSpaceOnUse" x1="533.4205" y1="906.6805" x2="529.3043" y2="1034.9561">
					<stop  offset="0" style="stop-color:#FFFFFF"/>
					<stop  offset="1" style="stop-color:#F1F2F2"/>
				</linearGradient>
				<path class="st40" d="M594.6,1161C594.6,1161,594.6,1161,594.6,1161c4.8-62.7,113.7-282.5,87.7-309.6
					c-19-19.7-50.2-14.2-57.4-27.8c-44.4,27.8-93.3-11.9-93.3-11.9c-13,5.7-70.8,2.8-82.2,20.4c-11.3,17.6-52.9,135.4-62,206.3
					c-5.8,45.4-12,100.8-14.2,139.2C476.5,1199.5,594.6,1161,594.6,1161z"/>
				<linearGradient id="SVGID_30_" gradientUnits="userSpaceOnUse" x1="459.0046" y1="942.1017" x2="849.6617" y2="942.1017">
					<stop  offset="0" style="stop-color:#FCDEE0"/>
					<stop  offset="1" style="stop-color:#EFB4B4"/>
				</linearGradient>
				<path class="st41" d="M511.1,821.2c0,2.3,93.7,196.4,104.3,189.6c10.6-6.8,122.4-110.3,134.5-136.8c12.1-26.4,21.9-68,34.8-71.8
					c12.8-3.8,47.6-18.9,50.6-10.6s27.2,69.5,5.3,74c-21.9,4.5-57.4,33.2-68.8,55.2c-11.3,21.9-105.8,171.5-137.5,173.8
					c-31.7,2.3-118.6-23.4-175.3-130L511.1,821.2z"/>
				<path class="st26" d="M700.7,931.4c-35.9,36.3-78.9,75.4-85.3,79.5c-10.6,6.8-104.3-187.4-104.3-189.6l-79.9,114.1
					c69.7,131.5,171.3,161.7,203.1,159.4c21.1-1.5,69.9-68.1,103.6-119C721.9,970.9,708.4,947.7,700.7,931.4z"/>
			</g>
		</g>
		<path class="st7" d="M1291.2,1147H744.1c-9.1,0-16.5-7.4-16.5-16.5v-22h580.1v22C1307.7,1139.6,1300.3,1147,1291.2,1147z"/>
		<linearGradient id="SVGID_31_" gradientUnits="userSpaceOnUse" x1="1225.542" y1="1107.3636" x2="866.2468" y2="1107.3636">
			<stop  offset="0" style="stop-color:#FEB783"/>
			<stop  offset="1" style="stop-color:#EA9154"/>
		</linearGradient>
		<path class="st42" d="M1429.3,1128.2H606c-4.9,0-9-4-9-9v-23.9c0-4.9,4-9,9-9h823.3c4.9,0,9,4,9,9v23.9
			C1438.3,1124.2,1434.3,1128.2,1429.3,1128.2z"/>
	</g>
	<g>
		<path class="st15" d="M1026.5,887.1v-59.6c0-0.7-0.4-1.3-1-1.3h-7.9h-7.9c-0.5,0-1,0.6-1,1.3v59.6c0,12.2-2.5,24.2-7.3,34.7
			l-9.3,20.6c-5.3,11.7-8.1,25-8.1,38.6v105.4h33.6h33.6V981.1c0-13.5-2.8-26.9-8.1-38.6l-9.3-20.6
			C1029,911.3,1026.5,899.3,1026.5,887.1z"/>
		<linearGradient id="SVGID_32_" gradientUnits="userSpaceOnUse" x1="984.0497" y1="1017.7061" x2="1051.2585" y2="1017.7061">
			<stop  offset="0" style="stop-color:#FEB783"/>
			<stop  offset="1" style="stop-color:#EA9154"/>
		</linearGradient>
		<rect x="984" y="989.2" class="st43" width="67.2" height="57"/>
	</g>
	<g>
		<g>
			<linearGradient id="SVGID_33_" gradientUnits="userSpaceOnUse" x1="1000.063" y1="255.9124" x2="997.0105" y2="397.8678">
				<stop  offset="0" style="stop-color:#7F4746"/>
				<stop  offset="1" style="stop-color:#683A3A"/>
			</linearGradient>
			<rect x="992.6" class="st44" width="15" height="511.4"/>
			<circle class="st26" cx="1001.1" cy="520.6" r="31.7"/>
			<linearGradient id="SVGID_34_" gradientUnits="userSpaceOnUse" x1="1001.0729" y1="530.1673" x2="1001.0729" y2="435.0201">
				<stop  offset="0" style="stop-color:#FEB783"/>
				<stop  offset="1" style="stop-color:#EA9154"/>
			</linearGradient>
			<path class="st45" d="M1001.1,442.1c-43.5,0-78.7,35.2-78.7,78.7h157.5C1079.8,477.3,1044.6,442.1,1001.1,442.1z"/>
		</g>
		<g>
			<linearGradient id="SVGID_35_" gradientUnits="userSpaceOnUse" x1="784.1241" y1="204.9425" x2="781.6792" y2="318.6425">
				<stop  offset="0" style="stop-color:#7F4746"/>
				<stop  offset="1" style="stop-color:#683A3A"/>
			</linearGradient>
			<rect x="776.6" class="st46" width="15" height="409.6"/>
			<circle class="st26" cx="785.1" cy="418.8" r="31.7"/>
			<linearGradient id="SVGID_36_" gradientUnits="userSpaceOnUse" x1="785.1331" y1="428.3074" x2="785.1331" y2="333.1602">
				<stop  offset="0" style="stop-color:#FEB783"/>
				<stop  offset="1" style="stop-color:#EA9154"/>
			</linearGradient>
			<path class="st47" d="M785.1,340.2c-43.5,0-78.7,35.2-78.7,78.7h157.5C863.9,375.5,828.6,340.2,785.1,340.2z"/>
		</g>
		<g>
			
				<linearGradient id="SVGID_37_" gradientUnits="userSpaceOnUse" x1="781.9783" y1="204.9425" x2="779.5333" y2="318.6425" gradientTransform="matrix(-1 0 0 1 2000 0)">
				<stop  offset="0" style="stop-color:#7F4746"/>
				<stop  offset="1" style="stop-color:#683A3A"/>
			</linearGradient>
			<polygon class="st48" points="1210.5,409.6 1225.5,409.6 1225.5,0 1210.5,0 			"/>
			<circle class="st26" cx="1217" cy="418.8" r="31.7"/>
			
				<linearGradient id="SVGID_38_" gradientUnits="userSpaceOnUse" x1="782.9873" y1="428.3074" x2="782.9873" y2="333.1602" gradientTransform="matrix(-1 0 0 1 2000 0)">
				<stop  offset="0" style="stop-color:#FEB783"/>
				<stop  offset="1" style="stop-color:#EA9154"/>
			</linearGradient>
			<path class="st49" d="M1217,340.2c43.5,0,78.7,35.2,78.7,78.7h-157.5C1138.3,375.5,1173.5,340.2,1217,340.2z"/>
		</g>
	</g>
</g>
</svg>
